<svg xmlns="http://www.w3.org/2000/svg" width="100" height="100" fill="none" viewBox="0 0 100 100">
  <style>
    .symbol-path {
      stroke: #303030;
      stroke-width: 2.8;
      stroke-linecap: round;
      stroke-linejoin: round;
      fill: none;
    }
    
    @media (prefers-color-scheme: dark) {
      .symbol-path {
        stroke: #fdfdfd;
      }
    }
  </style>
  
  <g class="symbol-path">
    <path d="M 50 12 L 62 32 L 84 32 L 69 47 L 76 68 L 50 56 L 24 68 L 31 47 L 16 32 L 38 32 Z"/>
    <circle cx="50" cy="50" r="20"/>
    <path d="M 50 36 Q 60 38 60 43 Q 60 47 50 50 Q 40 53 40 57 Q 40 62 50 64"/>
    <path d="M 50 12 L 50 24"/>
    <path d="M 84 32 L 74 38"/>
    <path d="M 76 68 L 66 60"/>
    <path d="M 24 68 L 34 60"/>
    <path d="M 16 32 L 26 38"/>
    <circle cx="50" cy="50" r="4"/>
  </g>
</svg>
